PathFileType	4	(X/Y/Z)	D:\TRACE\v60_Jaco2_6-2-23\BothDRS_Motion3_9-v60.trc
DataRate	CameraRate	NumFrames	NumMarkers	Units	OrigDataRate	OrigDataStartFrame	OrigNumFrames
100.00	100.00	      35	9	mm	100.00	5251	      7000
Frame#	Time	front left toe			Front right toe			aft left toe			aft right toe			Arm			FL body			FR body			AL Body			AR Body			
		X1	Y1	Z1	X2	Y2	Z2	X3	Y3	Z3	X4	Y4	Z4	X5	Y5	Z5	X6	Y6	Z6	X7	Y7	Z7	X8	Y8	Z8	X9	Y9	Z9	

5251	52.500	-154.10854	10.00783	-202.75476	233.87079	106.16944	-207.14847	-114.77966	117.83161	429.97397	243.62054	18.27448	403.89203	97.93713	1113.25879	-588.30316	-47.56179	509.69196	-372.10965	110.42249	502.28143	-377.79349	-1.56217	570.31024	569.40729	149.24492	553.69318	563.46869	
5252	52.510	-154.07663	9.64179	-202.54434	235.99811	98.91081	-206.80884	-115.09887	110.27013	431.08276	243.69598	18.25835	403.84396	97.46903	1113.37195	-588.13660	-47.67936	509.49582	-371.91461	110.15943	502.03003	-377.63986	-0.97386	570.18866	569.53235	149.93733	553.55438	563.43445	
5253	52.520	-154.04877	9.51644	-202.65887	236.01706	90.84812	-207.13242	-115.03645	102.28724	431.97690	243.89639	18.36097	403.85007	96.79545	1113.21509	-588.10205	-47.79634	509.22803	-371.67227	109.92141	501.84006	-377.66553	-0.16300	569.97260	569.62189	150.44424	553.63141	563.46368	
5254	52.530	-153.91559	9.33516	-202.65822	236.60030	82.25691	-207.00650	-114.58363	93.80327	432.29755	244.10791	18.51503	403.79935	96.42572	1113.20020	-588.23041	-47.74169	509.01498	-371.49112	110.09927	501.47269	-378.02475	0.53571	569.91040	569.68817	151.12845	553.60028	563.25256	
5255	52.540	-153.86981	9.30403	-202.62724	235.84071	73.61401	-207.08301	-115.07372	86.11645	431.93680	244.15492	18.54272	403.76691	95.82875	1112.83252	-588.47229	-47.77241	508.98883	-371.53046	110.09692	501.48862	-378.11084	1.42462	570.00702	569.64752	152.12109	553.59229	563.16699	
5256	52.550	-153.83014	9.29837	-202.62459	235.37689	64.49153	-207.47478	-114.01575	77.51153	431.71539	244.32513	18.55784	403.67325	94.97924	1112.52588	-589.08508	-47.88470	509.17725	-371.78009	110.14838	501.51038	-378.30917	2.29563	569.78192	569.32037	152.39616	553.67847	562.80310	
5257	52.560	-153.79807	9.27224	-202.66919	234.22247	55.48942	-207.81796	-113.83247	68.99049	430.52451	244.34656	18.64223	403.57089	94.26495	1112.33936	-589.56494	-47.91025	509.15115	-371.96939	109.91714	501.58926	-378.44229	2.79994	569.65314	569.04541	153.02245	553.59534	562.23022	
5258	52.570	-153.81639	9.17078	-202.65086	234.21249	47.01147	-208.92487	-113.44639	60.43694	429.77814	244.46410	18.77808	403.48007	93.61415	1112.05029	-590.06812	-47.90086	508.88693	-372.02838	109.97100	501.32153	-379.25449	3.50491	569.91345	568.78693	153.54802	553.78180	561.78259	
5259	52.580	-153.84898	9.08457	-202.70203	235.27649	38.91750	-209.82526	-113.02392	52.12436	428.96317	244.45749	18.79988	403.38303	92.98557	1112.11963	-590.64111	-48.09668	508.55389	-372.58279	109.43423	501.44873	-379.60019	4.27861	569.91455	568.37146	154.27420	553.94537	561.23938	
5260	52.590	-153.78961	8.94798	-202.72162	236.53131	32.08504	-211.15373	-112.88689	44.92426	427.64737	244.51921	18.90278	403.26825	92.86802	1112.13000	-591.06232	-48.22823	508.37698	-373.18378	109.51675	501.27307	-380.40472	4.91177	569.95819	567.82672	154.92709	554.03265	560.62830	
5261	52.600	-153.74315	8.79133	-202.88391	235.56136	24.47353	-213.63461	-111.43517	39.51686	425.85229	244.61937	18.97385	403.12958	92.33860	1112.17688	-592.15680	-48.21322	508.24829	-373.74396	110.41925	501.06171	-381.22394	5.36980	569.94342	567.24512	155.40063	554.31512	559.78064	
5262	52.610	-153.75061	8.70688	-202.97751	234.94202	18.15259	-215.68854	-111.08272	34.59559	423.78976	244.75594	19.08792	403.12360	91.84585	1112.08496	-593.05768	-48.31163	508.08859	-374.45853	110.44352	500.96390	-382.17279	6.04553	569.91119	566.27094	156.47130	554.38995	558.82098	
5263	52.620	-153.67024	8.53873	-203.13150	235.14088	14.00305	-217.70369	-111.36744	29.80125	421.97812	244.97031	19.27965	403.00864	90.93691	1112.05688	-593.83472	-48.50403	507.95285	-375.30234	109.63727	501.01871	-382.79654	6.67092	569.96954	565.62109	156.75218	554.69568	558.02899	
5264	52.630	-153.53096	8.32887	-203.30989	236.08626	11.92100	-218.15590	-111.40547	24.55933	419.33328	245.45001	19.61934	402.73361	90.37229	1111.97009	-594.98169	-48.49505	507.55637	-375.85062	109.14429	501.23499	-383.56613	7.36342	570.13470	564.61774	157.26395	554.76270	556.88037	
5265	52.640	-153.32053	8.24900	-203.39816	236.63763	11.47978	-219.67410	-111.93154	23.01454	420.05179	245.44110	19.82713	402.58838	89.56337	1111.92322	-596.33405	-48.68255	507.90585	-376.91986	109.14494	501.55371	-384.24338	7.72805	570.84491	563.96094	157.84142	555.38568	556.07513	
5266	52.650	-153.21117	8.29661	-203.47995	236.34352	11.27079	-218.85648	-112.18010	24.10058	419.20023	245.19505	20.48366	402.23712	88.63203	1111.68713	-597.75482	-48.77386	508.19089	-377.46884	109.00344	501.69397	-385.42752	8.52100	572.61737	562.85547	158.82573	557.09784	554.91162	
5267	52.660	-152.87521	8.89672	-203.70320	235.80872	10.98015	-218.93471	-111.33757	24.56901	419.38748	245.09756	21.18477	401.77692	87.73575	1111.86658	-599.31146	-48.86641	508.10831	-377.85388	108.63433	501.87128	-386.06683	9.10971	574.82935	562.26495	158.73085	559.29279	554.15283	
5268	52.670	-151.57643	12.32015	-202.72736	235.88538	10.17464	-218.87785	-111.11127	24.01411	419.50327	243.61726	24.22915	403.53156	87.21198	1112.03723	-601.45514	-49.41990	508.39230	-378.57806	108.68029	501.94507	-386.67667	10.07920	576.53137	561.69739	159.45531	560.84436	553.13275	
5269	52.680	-147.81921	15.57090	-200.48148	236.04831	10.22634	-219.13429	-111.25400	24.13713	419.37900	241.48093	27.68835	406.72729	86.27996	1111.70959	-603.52087	-49.72049	508.71558	-379.34711	108.25087	502.43005	-387.74466	10.44350	577.41571	560.78186	160.54929	561.91083	552.76941	
5270	52.690	-144.32552	19.50049	-197.87810	236.22470	9.99176	-219.30037	-111.05865	24.15043	419.24905	238.92148	36.13907	407.65668	85.13949	1110.92065	-605.07886	-49.68769	508.87698	-380.03088	108.06900	502.56451	-388.64102	10.99961	578.07697	559.70581	160.85121	562.88989	552.28894	
5271	52.700	-143.61273	29.29004	-199.61916	236.23015	9.58434	-219.32945	-110.89871	24.49892	419.18497	236.97391	45.17716	407.08987	84.41691	1110.20703	-606.78223	-49.80895	508.76523	-381.27570	108.13716	502.38483	-389.61261	11.48271	578.64386	558.71930	160.94696	563.79309	551.14551	
5272	52.710	-143.56656	39.41650	-201.15184	236.89497	9.07521	-219.58223	-110.52513	24.67544	419.15558	236.21477	56.30293	404.59576	84.20538	1109.81812	-608.43628	-49.65728	508.02112	-381.86417	108.25655	502.12344	-390.51669	11.69740	579.01868	557.72211	161.46741	564.43884	550.30969	
5273	52.720	-144.25073	50.85829	-203.55936	238.21577	9.82602	-218.79080	-110.48609	24.73747	419.01355	238.45372	67.98268	401.37238	83.94283	1109.45093	-609.86938	-49.42371	507.30838	-383.09958	109.27901	501.50107	-391.85107	11.51012	578.86676	556.81610	161.41670	564.37549	549.31342	
5274	52.730	-145.44240	62.72076	-205.64114	237.74158	9.41400	-219.18901	-110.57594	24.82350	418.79041	240.71223	78.89816	397.62772	83.91980	1108.86243	-611.49133	-49.12601	506.76175	-384.05368	109.45834	500.99139	-392.88663	11.18675	578.74530	555.63562	160.98639	564.13092	548.40002	
5275	52.740	-146.29982	74.16666	-207.85352	237.92142	9.00968	-219.27954	-110.61885	24.84968	418.49826	244.01640	91.24729	395.61826	84.50964	1107.98157	-613.08344	-49.23302	506.27975	-385.42004	108.81318	500.42657	-393.56674	10.73405	578.31580	554.62775	160.50279	563.94397	547.19788	
5276	52.750	-146.90648	84.66068	-209.46928	237.58316	8.11868	-219.94469	-110.61674	25.06351	418.34842	246.27570	102.48455	393.61801	85.43259	1107.19263	-614.91278	-49.03109	505.65076	-386.15979	108.73623	500.27127	-394.67776	10.20304	578.28430	553.54492	160.15428	563.95483	546.41486	
5277	52.760	-147.96124	95.63616	-211.70622	237.82603	7.94473	-220.02089	-110.50198	25.37940	418.22528	248.39296	113.88039	391.66785	86.30621	1106.31091	-616.82904	-49.24380	505.17346	-387.40408	108.67162	499.67288	-395.73370	9.79433	578.07220	552.41833	159.78455	563.93378	545.19714	
5278	52.770	-148.77043	105.78744	-213.61220	238.18272	7.63268	-220.25620	-110.29817	25.85925	417.87149	248.33719	124.06281	389.59900	87.61681	1105.27954	-618.65863	-48.99879	504.52176	-388.22266	108.76126	499.25842	-396.61478	9.92091	578.19611	551.40491	159.47507	564.10870	544.33087	
5279	52.780	-149.49142	114.67776	-215.14758	238.11555	7.29631	-220.82274	-110.26912	26.34061	417.83228	247.35028	133.43892	387.69852	88.35131	1104.13037	-620.64703	-49.12963	503.80875	-389.37195	108.66918	498.89462	-397.34653	9.04475	578.21991	550.23553	159.06094	564.38843	543.33630	
5280	52.790	-150.24379	123.14385	-216.86656	238.38789	7.29216	-220.78302	-110.07117	26.60830	417.66531	245.95474	141.66853	385.80176	88.89830	1102.92114	-622.82416	-49.19026	503.34280	-390.29749	108.98952	498.05780	-398.16367	8.26598	578.57086	549.49817	158.08949	564.52399	542.49072	
5281	52.800	-151.89035	130.32324	-218.41183	238.74925	7.11412	-220.67455	-110.07742	26.86357	417.52451	245.73375	149.17331	383.83566	89.51664	1101.60315	-624.97656	-49.12857	502.73026	-391.05826	108.85445	497.47192	-398.97867	7.65708	578.82422	548.48926	157.46152	564.98529	541.62073	
5282	52.810	-153.52460	136.14073	-219.81213	238.04202	6.70806	-220.69031	-109.96556	26.96343	417.40576	245.37192	154.39137	382.85107	90.16964	1100.01379	-626.88129	-48.82061	502.14996	-392.01746	108.67630	497.08856	-399.51648	7.15248	579.39178	547.62598	157.01489	565.31769	541.03400	
5283	52.820	-155.52730	139.74097	-221.07503	237.47649	6.10283	-221.04141	-109.77642	27.09051	417.27853	243.99919	156.48581	381.80536	90.32980	1098.74536	-629.20099	-48.81680	501.50327	-392.70346	109.11342	496.37680	-400.21191	5.77540	579.93597	546.70264	155.52974	565.93390	540.17297	
5284	52.830	-156.68968	138.92055	-221.44266	237.05324	5.72001	-221.44450	-109.66625	27.42429	416.93387	243.81827	156.33607	381.87582	91.28149	1097.36902	-631.14722	-48.80803	501.02127	-393.59225	109.32058	495.84311	-400.71979	4.77599	580.84442	546.16034	154.60883	566.19220	538.97601	
5285	52.840	-157.33971	135.00021	-221.10446	237.38792	5.70094	-221.38048	-110.08723	28.29791	416.40051	242.50093	153.59586	382.77313	92.22053	1096.00696	-633.17450	-48.69895	500.53821	-394.42111	109.08987	495.32571	-401.32727	3.04721	581.49945	545.28534	152.79922	567.06775	538.59851	
